<?xml version="1.0" encoding="UTF-8" standalone="no"?>
<!DOCTYPE svg PUBLIC "-//W3C//DTD SVG 1.1//EN" "http://www.w3.org/Graphics/SVG/1.1/DTD/svg11.dtd">
<svg width="100%" height="100%" viewBox="0 0 2413 2456" version="1.1" xmlns="http://www.w3.org/2000/svg" xmlns:xlink="http://www.w3.org/1999/xlink" xml:space="preserve" xmlns:serif="http://www.serif.com/" style="fill-rule:evenodd;clip-rule:evenodd;stroke-linecap:round;stroke-linejoin:round;stroke-miterlimit:1.5;">
    <g transform="matrix(1,0,0,1,-283.247,-265.364)">
        <g transform="matrix(1,0,0,1,-0.664865,-7.55969)">
            <g transform="matrix(3.61283,0,0,3.61283,-3919.22,-758.13)">
                <path d="M1474,438L1474,594.407L1526,594.471L1526,438L1599.97,564.953L1645.01,538.969L1500.08,290L1355.11,539.039L1400.05,564.962L1474,438Z" style="fill:none;stroke:rgb(6,142,177);stroke-width:9.23px;"/>
            </g>
        </g>
        <g transform="matrix(1,0,0,1,-0.664865,-7.55969)">
            <g transform="matrix(-1.80641,-3.1288,3.1288,-1.80641,2164.08,7478.01)">
                <path d="M1474,334.807L1474,594.407L1526,594.471L1526,438L1599.97,564.953L1645.01,538.969L1500.08,290L1474,334.807" style="fill:none;stroke:rgb(6,142,177);stroke-width:9.23px;"/>
            </g>
        </g>
        <g transform="matrix(1,0,0,1,-0.664865,-7.55969)">
            <g transform="matrix(-1.80641,3.1288,-3.1288,-1.80641,6255.14,-1908.34)">
                <path d="M1526,334.526L1500.08,290L1355.11,539.039L1400.05,564.962L1474,438L1474,594.407L1526,594.471L1526,334.526" style="fill:none;stroke:rgb(6,142,177);stroke-width:9.23px;"/>
            </g>
        </g>
        <g transform="matrix(11.8277,0,0,10.2286,-10016.9,-24123.9)">
            <path d="M890.74,2613.79L877.215,2613.79L874.065,2623.7L871.111,2623.7L882.684,2588.16L885.32,2588.16L896.795,2623.7L893.865,2623.7L890.74,2613.79ZM878.045,2611.18L889.91,2611.18L884.002,2592.48L878.045,2611.18Z" style="fill:rgb(6,142,177);fill-rule:nonzero;stroke:rgb(6,142,177);stroke-width:0.57px;stroke-linecap:butt;stroke-miterlimit:2;"/>
            <path d="M915.301,2608.84L906.512,2608.84L906.512,2623.7L903.631,2623.7L903.631,2588.16L913.665,2588.16C915.228,2588.19 916.701,2588.44 918.084,2588.91C919.467,2589.39 920.676,2590.07 921.71,2590.95C922.743,2591.84 923.557,2592.93 924.151,2594.21C924.745,2595.5 925.042,2596.97 925.042,2598.63C925.042,2599.82 924.867,2600.9 924.517,2601.88C924.167,2602.86 923.683,2603.74 923.064,2604.53C922.446,2605.32 921.71,2606.01 920.855,2606.62C920.001,2607.22 919.061,2607.73 918.035,2608.15L926.141,2623.39L926.141,2623.7L923.089,2623.7L915.301,2608.84ZM906.512,2606.37L914.251,2606.37C915.358,2606.34 916.391,2606.13 917.352,2605.74C918.312,2605.35 919.146,2604.81 919.854,2604.14C920.562,2603.46 921.115,2602.65 921.514,2601.71C921.913,2600.76 922.112,2599.73 922.112,2598.61C922.112,2597.35 921.893,2596.24 921.453,2595.26C921.014,2594.29 920.416,2593.46 919.659,2592.78C918.902,2592.11 918.007,2591.59 916.973,2591.23C915.94,2590.88 914.829,2590.68 913.641,2590.65L906.512,2590.65L906.512,2606.37Z" style="fill:rgb(6,142,177);fill-rule:nonzero;stroke:rgb(6,142,177);stroke-width:0.57px;stroke-linecap:butt;stroke-miterlimit:2;"/>
            <path d="M955.486,2612.91C955.291,2614.51 954.892,2615.99 954.29,2617.37C953.688,2618.74 952.89,2619.94 951.897,2620.96C950.905,2621.98 949.729,2622.77 948.37,2623.34C947.011,2623.91 945.485,2624.19 943.792,2624.19C942.376,2624.19 941.094,2623.98 939.947,2623.55C938.799,2623.12 937.782,2622.53 936.895,2621.78C936.008,2621.03 935.239,2620.15 934.588,2619.14C933.937,2618.13 933.4,2617.04 932.977,2615.88C932.553,2614.72 932.24,2613.51 932.037,2612.26C931.833,2611 931.723,2609.76 931.707,2608.52L931.707,2603.37C931.723,2602.13 931.833,2600.89 932.037,2599.63C932.24,2598.38 932.553,2597.17 932.977,2596.01C933.4,2594.84 933.937,2593.76 934.588,2592.75C935.239,2591.74 936.008,2590.86 936.895,2590.1C937.782,2589.34 938.799,2588.75 939.947,2588.32C941.094,2587.89 942.376,2587.67 943.792,2587.67C945.517,2587.67 947.059,2587.95 948.418,2588.53C949.778,2589.09 950.953,2589.89 951.946,2590.91C952.939,2591.92 953.733,2593.12 954.327,2594.51C954.921,2595.89 955.307,2597.39 955.486,2599.02L952.581,2599.02C952.386,2597.8 952.072,2596.65 951.641,2595.58C951.21,2594.51 950.636,2593.57 949.92,2592.76C949.204,2591.95 948.341,2591.32 947.332,2590.86C946.323,2590.39 945.143,2590.16 943.792,2590.16C942.636,2590.16 941.611,2590.36 940.716,2590.75C939.821,2591.14 939.035,2591.66 938.36,2592.31C937.684,2592.96 937.111,2593.72 936.639,2594.59C936.167,2595.46 935.784,2596.39 935.491,2597.36C935.198,2598.34 934.983,2599.34 934.844,2600.35C934.706,2601.37 934.637,2602.36 934.637,2603.32L934.637,2608.52C934.637,2609.48 934.706,2610.47 934.844,2611.5C934.983,2612.52 935.198,2613.53 935.491,2614.5C935.784,2615.48 936.167,2616.4 936.639,2617.27C937.111,2618.14 937.684,2618.91 938.36,2619.57C939.035,2620.23 939.821,2620.75 940.716,2621.14C941.611,2621.53 942.636,2621.73 943.792,2621.73C945.159,2621.73 946.351,2621.5 947.369,2621.06C948.386,2620.61 949.249,2619.99 949.957,2619.19C950.665,2618.39 951.234,2617.45 951.666,2616.38C952.097,2615.31 952.402,2614.15 952.581,2612.91L955.486,2612.91Z" style="fill:rgb(6,142,177);fill-rule:nonzero;stroke:rgb(6,142,177);stroke-width:0.57px;stroke-linecap:butt;stroke-miterlimit:2;"/>
            <path d="M984.759,2623.7L982,2623.7L982,2606.66L965.301,2606.66L965.301,2623.7L962.542,2623.7L962.542,2588.16L965.301,2588.16L965.301,2604.12L982,2604.12L982,2588.16L984.759,2588.16L984.759,2623.7Z" style="fill:rgb(6,142,177);fill-rule:nonzero;stroke:rgb(6,142,177);stroke-width:0.57px;stroke-linecap:butt;stroke-miterlimit:2;"/>
            <path d="M1003.31,2607.54L1012.81,2588.16L1016.13,2588.16L1004.73,2610.33L1004.68,2623.7L1001.95,2623.7L1001.9,2610.33L990.496,2588.16L993.89,2588.16L1003.31,2607.54Z" style="fill:rgb(6,142,177);fill-rule:nonzero;stroke:rgb(6,142,177);stroke-width:0.57px;stroke-linecap:butt;stroke-miterlimit:2;"/>
            <path d="M1033.54,2619.29L1043.23,2588.16L1046.33,2588.16L1034.93,2623.7L1032.22,2623.7L1020.82,2588.16L1023.92,2588.16L1033.54,2619.29Z" style="fill:rgb(6,142,177);fill-rule:nonzero;stroke:rgb(6,142,177);stroke-width:0.57px;stroke-linecap:butt;stroke-miterlimit:2;"/>
            <path d="M1072.16,2606.66L1056.49,2606.66L1056.49,2621.17L1074.55,2621.17L1074.55,2623.7L1053.58,2623.7L1053.58,2588.16L1074.46,2588.16L1074.46,2590.72L1056.49,2590.72L1056.49,2604.12L1072.16,2604.12L1072.16,2606.66Z" style="fill:rgb(6,142,177);fill-rule:nonzero;stroke:rgb(6,142,177);stroke-width:0.57px;stroke-linecap:butt;stroke-miterlimit:2;"/>
        </g>
    </g>
</svg>
